<svg width="201" height="212" viewBox="0 0 201 212" fill="none" xmlns="http://www.w3.org/2000/svg">
<path fill-rule="evenodd" clip-rule="evenodd" d="M197.333 60.667C199.714 63.047 197.689 65.345 178.244 82.323C167.363 91.824 143 110 141.147 110C140.651 110 139.657 110.709 138.938 111.575C138.219 112.441 133.101 116.094 127.565 119.693C122.029 123.292 115.025 127.858 112 129.84C102.983 135.749 95.237 140.467 85.457 146.007C83.508 147.111 78.896 149.965 75.207 152.348C66.888 157.724 58.122 163 57.508 163C57.254 163 51.615 166.644 44.977 171.097C35.001 177.79 32.454 179.08 30.292 178.537C27.724 177.893 27.711 177.846 29.588 176.05C32.884 172.896 54.618 158.843 77.5 145.07C104.457 128.845 126.168 114.859 142.292 103.331C158.518 91.73 181.992 73.34 173 79.273C167.318 83.022 145.142 95.931 140.5 98.191C137.75 99.53 131.803 102.735 127.285 105.313C122.766 107.891 118.786 110 118.439 110C118.092 110 116.614 110.812 115.154 111.804C113.694 112.796 110.475 114.462 108 115.505C105.525 116.549 101.7 118.575 99.5 120.007C90.643 125.775 46.574 146.517 24 155.545C14.064 159.518 11.778 159.891 9.40797 157.923C7.38197 156.243 8.91496 154.75 15.765 151.736C39.985 141.074 52.108 135.483 69.973 126.733C81.263 121.204 92.3 115.529 94.5 114.123C96.7 112.716 100.075 110.724 102 109.695C109.985 105.428 119.984 99.156 127.5 93.699C131.9 90.505 137.082 86.852 139.015 85.582C142.51 83.285 145.81 80 144.623 80C144.281 80 135.788 84.013 125.75 88.919C115.713 93.824 104.575 99.05 101 100.532C94.728 103.132 82.042 108.955 73.268 113.26C69.72 115.001 68.615 115.146 66.439 114.154C65.011 113.504 64.004 112.489 64.2 111.899C64.397 111.309 70.62 107.465 78.029 103.356C98.799 91.839 128.724 70.391 126.762 68.428C126.52 68.187 118.712 69.562 109.411 71.485C90.502 75.393 84.419 75.767 79.299 73.338C75.937 71.742 75.822 71.512 76.446 67.614C77.068 63.722 79.37 60 81.155 60C81.62 60 82 61.773 82 63.941C82 66.109 82.5 68.191 83.112 68.569C85.348 69.951 93.862 68.967 109.466 65.523C131.138 60.74 134 60.917 134 67.041C134 69.004 132.359 71.202 127.617 75.591C120.702 81.992 120.747 81.956 113.752 86.948C111.14 88.812 109.174 90.507 109.382 90.715C109.59 90.923 116.001 88.092 123.63 84.424C141.808 75.683 149.665 72.096 154.286 70.429C157.938 69.112 158.111 69.15 159.195 71.528C160.556 74.517 159.214 76.281 151 82.293C147.975 84.507 144.725 87.114 143.778 88.087C142.832 89.06 139.569 91.507 136.528 93.525C130.281 97.672 129.034 99.374 134.75 95.953C136.812 94.719 141.65 91.942 145.5 89.784C149.35 87.625 154.075 84.925 156 83.784C166.575 77.515 178.501 70.312 180.479 69C185.77 65.49 195.168 60 195.887 60C196.316 60 196.967 60.3 197.333 60.667ZM123 102.393C123 102.609 122.302 103.054 121.448 103.382C120.558 103.723 120.157 103.555 120.507 102.989C121.094 102.038 123 101.583 123 102.393Z" fill="#040404"/>
</svg>
