<svg width="275" height="84" viewBox="0 0 275 84" fill="none" xmlns="http://www.w3.org/2000/svg">
<path fill-rule="evenodd" clip-rule="evenodd" d="M138.616 0.458347C138.446 0.658209 129.444 1.52911 118.612 2.39324C70.075 6.26786 38.3515 10.1135 34.3964 12.6026C31.4091 14.4835 32.8638 15.1564 37.1127 13.8607C41.4897 12.5244 50.4318 11.0761 59.9254 10.1647C65.1274 9.66455 65.1882 9.68483 62.352 10.9825C60.7529 11.7134 55.1281 12.8083 49.853 13.4137C25.8295 16.1731 10.6561 22.281 3.28362 32.1601C0.749517 35.5559 0.410487 36.6334 0.410487 41.2881C0.410487 46.3272 0.577129 46.7394 4.10452 50.4239C15.8006 62.6415 50.1773 75.3371 87.4254 81.193C103.864 83.7767 143.58 84.8127 161.226 83.1172C179.242 81.3861 209.506 77.3541 220.821 75.1778C252.233 69.1346 267.408 60.8978 273.13 46.7848C273.875 44.9494 274.836 43.448 275.267 43.448C275.98 43.448 275.683 37.7408 274.68 32.1978C272.784 21.7132 262.614 14.5153 244.216 10.6349C238.799 9.49173 232.875 7.972 231.053 7.25655C217.78 2.04759 198.919 -0.0572397 166.238 0.0257948C151.216 0.06345 138.786 0.258484 138.616 0.458347ZM154.739 3.00635C160.157 3.44662 170.131 4.26828 176.903 4.83214C195.28 6.36055 223.403 7.90635 223.825 7.41007C224.39 6.74483 214.226 4.79931 202.351 3.30083C195.461 2.4309 183.388 1.99835 168.284 2.07945C147.89 2.18855 146.152 2.30731 154.739 3.00635ZM111.231 5.91352C106.716 6.30648 101.36 7.08083 99.3284 7.63214C96.2238 8.476 96.8789 8.55228 103.433 8.11297C107.722 7.82524 117.063 7.24207 124.191 6.81628C131.319 6.39048 137.39 5.76097 137.682 5.41821C138.338 4.64676 122.319 4.94607 111.231 5.91352ZM156.568 6.48993C158.025 6.70331 160.611 6.70621 162.314 6.49766C164.017 6.28814 162.825 6.11435 159.664 6.10952C156.504 6.10566 155.11 6.27655 156.568 6.48993ZM128.881 10.7672C120.077 11.219 108.81 11.9142 103.843 12.311L94.8135 13.0342L115.746 14.7702C137.812 16.6008 157.828 19.0735 176.903 22.3283C214.316 28.7103 237.218 39.9142 237.236 51.8432L237.239 53.9615L241.349 51.9532C246.563 49.4043 251.194 43.5629 251.194 39.5348C251.194 26.3796 230.937 14.8697 201.119 11.0829C188.858 9.52552 155.891 9.38166 128.881 10.7672ZM232.108 11.2596C232.673 11.528 233.597 11.528 234.161 11.2596C234.725 10.9921 234.263 10.773 233.134 10.773C232.006 10.773 231.544 10.9921 232.108 11.2596ZM221.042 12.255C221.841 12.5003 222.949 12.4839 223.504 12.2193C224.06 11.9548 223.407 11.7549 222.052 11.7742C220.698 11.7935 220.243 12.0098 221.042 12.255ZM232.724 15.0444C244.566 18.8138 253.553 24.6262 257.192 30.8702C259.669 35.1214 258.664 35.2189 255.611 31.0228C253.705 28.4052 250.323 25.5695 246.188 23.1248C239.496 19.1672 235.04 17.7749 241.072 21.5259C248.586 26.199 252.836 32.9065 252.836 40.0938C252.836 44.9436 247.539 51.3913 241.006 54.4925C238.336 55.7593 235.846 57.4422 235.471 58.231C234.164 60.9779 251.208 53.2017 253.433 50.0357C253.927 49.3328 254.579 47.1932 254.883 45.2796C255.188 43.3659 256.178 40.5418 257.085 39.0037L258.733 36.2066L258.278 41.3606L257.821 46.5145L259.495 44.0128C261.736 40.6625 261.434 33.6113 258.851 28.9421C256.749 25.1447 250.022 18.8804 245.836 16.8229C243.235 15.5446 229.183 12.4839 226.567 12.6258C225.89 12.6625 228.66 13.7516 232.724 15.0444ZM245.037 13.5035C245.94 13.9679 248.896 15.1023 251.605 16.0235C258.275 18.2943 263.75 21.5964 267.568 25.6545C270.151 28.3985 270.853 29.9182 271.299 33.7272C272.281 42.133 268.425 47.1691 255.587 54.2454C251.628 56.4274 246.361 59.7382 243.882 61.6036C241.402 63.469 236.4 66.4283 232.765 68.1797C225.174 71.8371 226.41 72.2803 236.418 69.488C253.365 64.7589 262.994 59.2062 268.738 50.8497C273.3 44.2127 275.011 33.5234 272.291 28.6418C269.115 22.9404 262.118 17.8801 253.614 15.1352C247.94 13.3026 242.715 12.3091 245.037 13.5035ZM67.7239 15.0377C57.7903 16.1683 52.2977 17.995 39.9727 24.2651C23.6919 32.5492 22.1642 33.76 22.1642 38.381C22.1642 46.8843 34.6821 55.0545 58.896 62.3538C74.6786 67.1119 83.6436 67.9316 120.672 68.0011C165.629 68.0861 200.427 64.5774 226.772 57.3022L235.597 54.8662V51.7601C235.597 42.271 215.575 32.0617 185.376 26.1527C151.469 19.5186 84.1985 13.1636 67.7239 15.0377ZM32.8359 18.3108C20.3435 21.4641 12.1288 25.584 6.58362 31.4766C-5.26354 44.065 4.9878 54.6161 42.1604 68.0928C50.0115 70.9392 56.1953 72.651 71.8284 76.3084C80.0792 78.2385 102.875 81.0288 114.29 81.5058L126.008 81.9963L114.356 80.6745C94.6764 78.4422 76.7111 74.6612 61.2249 69.4938C58.0275 68.4259 53.1941 66.8222 50.4851 65.9301C40.3659 62.5961 25.7318 55.8539 21.5814 52.6127C16.6503 48.7612 14.4314 44.5941 15.18 40.5881C15.8212 37.1519 25.3944 26.1662 30.3732 23.1519C32.4049 21.9218 36.653 19.9222 39.8135 18.7076C44.6543 16.848 45.1074 16.5043 42.6866 16.5246C41.1064 16.5381 36.6735 17.3423 32.8359 18.3108ZM255.341 21.8841C257.173 23.8316 259.54 27.1983 260.599 29.3669C264.412 37.1721 264.033 42.0789 259.148 48.1472L256.53 51.3981L259.403 49.7364C260.983 48.823 264.072 45.8743 266.268 43.1834C270.135 38.4447 270.244 38.155 269.746 33.8846C269.463 31.4601 268.59 28.7345 267.807 27.8288C266.38 26.1797 253.859 18.3446 252.651 18.3446C252.298 18.3446 253.509 19.9377 255.341 21.8841ZM32.8359 24.6204C31.7071 25.3793 31.153 26.0001 31.6045 26.0001C32.056 26.0001 33.3489 25.3793 34.4777 24.6204C35.6064 23.8615 36.1605 23.2407 35.709 23.2407C35.2575 23.2407 33.9646 23.8615 32.8359 24.6204ZM0.206905 41.0342C0.215935 43.1583 0.384219 43.9134 0.580413 42.7123C0.776607 41.5112 0.769219 39.7732 0.563995 38.8502C0.358771 37.9272 0.197875 38.9101 0.206905 41.0342ZM17.6641 39.9625C16.7512 43.8168 17.9538 47.115 21.3433 50.0531L24.2165 52.5441L21.9056 49.5674C20.3935 47.62 19.3756 44.9648 18.9603 41.8819C18.3577 37.4193 18.2896 37.3179 17.6641 39.9625ZM34.7879 56.0297C38.5665 58.4917 45.0713 61.3043 43.9097 59.9748C43.4632 59.4621 41.25 58.1963 38.9926 57.1622C32.2309 54.0639 31.4461 53.8524 34.7879 56.0297ZM227.294 59.3298C226.502 60.2606 207.359 63.8793 193.321 65.7514C176.746 67.9625 148.874 70.1803 134.655 70.4197C129.478 70.5066 125.118 70.7248 124.965 70.9044C124.812 71.084 132.657 71.5503 142.398 71.9404C174.068 73.2101 199.61 70.3686 223.5 62.9177C229.276 61.116 232.495 58.8963 229.331 58.8963C228.413 58.8963 227.496 59.0913 227.294 59.3298ZM238.47 61.7928C237.387 62.3403 237.248 62.6406 238.06 62.6753C238.737 62.7052 239.845 62.3074 240.522 61.7928C242.023 60.6526 240.727 60.6526 238.47 61.7928ZM229.851 64.8197C221.838 67.5869 201.978 72.1441 190.858 73.7672C168.953 76.965 132.89 78.3254 108.769 76.8646L100.56 76.3673L109.59 77.7123C136.909 81.781 189.354 79.7167 209.527 73.7788C212.353 72.9474 215.957 71.9114 217.537 71.477C223.097 69.9495 233.693 65.6095 235.252 64.223C237.243 62.4503 236.461 62.5372 229.851 64.8197ZM64.9189 67.9577C65.5198 68.6104 82.1824 71.6604 82.5813 71.1912C82.7931 70.943 79.668 70.0297 75.6374 69.1626C68.6474 67.6583 64.1818 67.1563 64.9189 67.9577ZM90.5038 70.1822C91.2943 70.4255 92.5864 70.4255 93.3769 70.1822C94.1674 69.9399 93.5206 69.741 91.9403 69.741C90.3601 69.741 89.7133 69.9399 90.5038 70.1822ZM95.2239 70.552C95.2239 71.6681 117.207 74.1389 133.546 74.8592C140.413 75.1623 144.555 74.9789 144.882 74.3581C145.215 73.7218 142.572 73.3752 137.343 73.3694C132.915 73.3636 124.858 72.8972 119.44 72.3334C99.738 70.2807 95.2239 69.9486 95.2239 70.552ZM85.594 72.1171C86.3927 72.3624 87.5009 72.3459 88.0567 72.0814C88.6124 71.8168 87.959 71.617 86.6045 71.6363C85.25 71.6556 84.7953 71.8719 85.594 72.1171ZM150.019 74.9837C150.583 75.2521 151.507 75.2521 152.071 74.9837C152.636 74.7163 152.174 74.4971 151.045 74.4971C149.916 74.4971 149.455 74.7163 150.019 74.9837Z" fill="#2F2C27"/>
</svg>
